HIERARCHY
ROOT Hips
{
	OFFSET 0.000000 0.000000 0.000000
	CHANNELS 6 Xposition Yposition Zposition Zrotation Yrotation Xrotation 
	JOINT LowerBack
	{
		OFFSET 0.000000 0.000000 0.000000
		CHANNELS 3 Zrotation Yrotation Xrotation
		JOINT Spine
		{
			OFFSET 0.028270 2.035590 -0.193380
			CHANNELS 3 Zrotation Yrotation Xrotation
			JOINT Spine1
			{
				OFFSET 0.056720 2.048850 -0.042750
				CHANNELS 3 Zrotation Yrotation Xrotation
				JOINT Neck
				{
					OFFSET 0.000000 0.000000 0.000000
					CHANNELS 3 Zrotation Yrotation Xrotation
					JOINT Neck1
					{
						OFFSET -0.054170 1.746240 0.172020
						CHANNELS 3 Zrotation Yrotation Xrotation
						JOINT Head
						{
							OFFSET 0.104070 1.761360 -0.123970
							CHANNELS 3 Zrotation Yrotation Xrotation
							End Site
							{
								OFFSET 0.000000 0.000000 0.000000
							}
						}
					}
				}
				JOINT LeftShoulder
				{
					OFFSET 0.000000 0.000000 0.000000
					CHANNELS 3 Zrotation Yrotation Xrotation
					JOINT LeftArm
					{
						OFFSET 3.362410 1.200890 -0.311210
						CHANNELS 3 Zrotation Yrotation Xrotation
						JOINT LeftForeArm
						{
							OFFSET 4.983000 -0.000000 -0.000000
							CHANNELS 3 Zrotation Yrotation Xrotation
							JOINT LeftHand
							{
								OFFSET 3.483560 -0.000000 -0.000000
								CHANNELS 3 Zrotation Yrotation Xrotation
								JOINT LeftFingerBase
								{
									OFFSET 0.000000 0.000000 0.000000
									CHANNELS 3 Zrotation Yrotation Xrotation
									JOINT LeftHandIndex1
									{
										OFFSET 0.715260 -0.000000 -0.000000
										CHANNELS 3 Zrotation Yrotation Xrotation
										End Site
										{
											OFFSET 0.000000 0.000000 0.000000
										}
									}
								}
								JOINT LThumb
								{
									OFFSET 0.000000 0.000000 0.000000
									CHANNELS 3 Zrotation Yrotation Xrotation
									End Site
									{
										OFFSET 0.000000 0.000000 0.000000
									}
								}
							}
						}
					}
				}
				JOINT RightShoulder
				{
					OFFSET 0.000000 0.000000 0.000000
					CHANNELS 3 Zrotation Yrotation Xrotation
					JOINT RightArm
					{
						OFFSET -3.136600 1.374050 -0.404650
						CHANNELS 3 Zrotation Yrotation Xrotation
						JOINT RightForeArm
						{
							OFFSET -5.241900 -0.000000 -0.000000
							CHANNELS 3 Zrotation Yrotation Xrotation
							JOINT RightHand
							{
								OFFSET -3.444170 -0.000000 -0.000000
								CHANNELS 3 Zrotation Yrotation Xrotation
								JOINT RightFingerBase
								{
									OFFSET 0.000000 0.000000 0.000000
									CHANNELS 3 Zrotation Yrotation Xrotation
									JOINT RightHandIndex1
									{
										OFFSET -0.622530 -0.000000 -0.000000
										CHANNELS 3 Zrotation Yrotation Xrotation
										End Site
										{
											OFFSET 0.000000 0.000000 0.000000
										}
									}
								}
								JOINT RThumb
								{
									OFFSET 0.000000 0.000000 0.000000
									CHANNELS 3 Zrotation Yrotation Xrotation
									End Site
									{
										OFFSET 0.000000 0.000000 0.000000
									}
								}
							}
						}
					}
				}
			}
		}
	}
}
}
MOTION
Frames: 6
Frame Time: 0.008333
1.366312 12.404307 2.131601 -174.082169 -88.928519 -121.755842 4.613348 -2.303486 -6.991595 -0.102209 -3.024010 -4.973980 -7.027388 -3.307731 -0.723448 13.887889 -11.319519 -17.005205 -3.557194 -0.132675 -3.650645 0.000000 0.000000 0.000000 -10.151733 11.069715 4.618063 -66.455707 12.941985 13.747269 -1.373226 -45.596882 -0.003608 1.784004 7.361207 0.114421 -0.011818 0.081984 -0.000000 0.000000 0.000000 0.000000 0.000000 0.000000 0.000000 22.847027 -6.894473 4.278635 63.020479 -8.928890 4.514398 1.945273 50.506692 0.011683 -0.973810 8.243717 -0.079471 0.103483 -0.285530 0.000000 0.000000 0.000000 0.000000 0.000000 0.000000 0.000000 
1.216806 12.292579 2.135806 -179.234886 -88.865952 -116.564737 4.570056 -2.339513 -7.314980 -0.138121 -3.084437 -5.051769 -7.112119 -3.376497 -0.713355 14.075255 -10.694750 -16.991429 -3.745807 -0.152235 -3.658651 0.000000 0.000000 0.000000 -10.764529 11.070016 4.653337 -66.125217 11.446998 13.976541 -1.415192 -43.534629 -0.003673 1.927001 7.463086 0.125212 -0.010530 0.081765 -0.000000 0.000000 0.000000 0.000000 0.000000 0.000000 0.000000 23.628275 -6.299279 4.299146 62.599015 -7.662375 3.901030 1.976818 48.799961 0.008069 -2.011150 8.312816 -0.158780 0.112875 -0.284500 0.000000 0.000000 0.000000 0.000000 0.000000 0.000000 0.000000 
1.067147 12.193665 2.138240 176.213723 -88.847745 -112.021454 4.533962 -2.370497 -7.673234 -0.172232 -3.142592 -5.141600 -7.197090 -3.443924 -0.716701 14.253334 -10.008644 -16.932606 -3.943459 -0.173215 -3.653004 0.000000 0.000000 0.000000 -11.264899 10.853336 4.709722 -65.846921 9.840513 14.192230 -1.465548 -41.202286 -0.003658 2.024645 7.612883 0.134005 -0.008889 0.082463 -0.000000 0.000000 0.000000 0.000000 0.000000 0.000000 0.000000 24.416442 -5.647933 4.338831 62.190710 -6.269277 3.406545 2.009189 46.960974 0.004588 -2.979178 8.345288 -0.233093 0.120783 -0.282908 0.000000 0.000000 0.000000 0.000000 0.000000 0.000000 0.000000 
0.917622 12.108836 2.138765 172.569726 -88.847502 -108.436668 4.491247 -2.388847 -8.055952 -0.206789 -3.188926 -5.242171 -7.275083 -3.500422 -0.738364 14.400043 -9.251493 -16.818473 -4.146339 -0.195203 -3.630874 0.000000 0.000000 0.000000 -11.640964 10.404511 4.793098 -65.635900 8.129406 14.351834 -1.525137 -38.580232 -0.003603 2.078103 7.782268 0.140502 -0.007130 0.084551 -0.000000 0.000000 0.000000 0.000000 0.000000 0.000000 0.000000 25.174013 -4.927112 4.402182 61.827275 -4.758243 3.019773 2.042070 44.992835 0.001461 -3.799062 8.332921 -0.294911 0.126362 -0.281036 0.000000 0.000000 0.000000 0.000000 0.000000 0.000000 0.000000 
0.768840 12.038960 2.136741 170.730281 -88.819953 -106.727353 4.407493 -2.387433 -8.438942 -0.248124 -3.211862 -5.346254 -7.336316 -3.534207 -0.775943 14.498657 -8.438527 -16.649199 -4.345765 -0.217080 -3.592450 0.000000 0.000000 0.000000 -11.874413 9.750488 4.905650 -65.497729 6.277418 14.447615 -1.597177 -35.648228 -0.003612 2.101508 7.933190 0.144705 -0.005831 0.088476 -0.000000 0.000000 0.000000 0.000000 0.000000 0.000000 0.000000 25.860063 -4.150470 4.491152 61.543564 -3.095699 2.749765 2.075326 42.874800 -0.001145 -4.415160 8.278431 -0.339332 0.129165 -0.279241 0.000000 0.000000 0.000000 0.000000 0.000000 0.000000 0.000000 
0.620626 11.985563 2.133426 169.730326 -88.781006 -105.914160 4.301207 -2.370712 -8.830065 -0.290782 -3.216509 -5.458799 -7.377829 -3.550322 -0.838924 14.521254 -7.538837 -16.408910 -4.541963 -0.239008 -3.532881 0.000000 0.000000 0.000000 -11.998713 8.875974 5.050299 -65.412811 4.313806 14.425630 -1.680684 -32.455047 -0.003766 2.112964 8.032456 0.147214 -0.005287 0.094543 -0.000000 0.000000 0.000000 0.000000 0.000000 0.000000 0.000000 26.442702 -3.286641 4.607159 61.358734 -1.321215 2.525833 2.107270 40.632936 -0.003059 -4.759119 8.175126 -0.360658 0.128565 -0.277891 0.000000 0.000000 0.000000 0.000000 0.000000 0.000000 0.000000 
